# xmcd
#
# Track frame offsets:
#      150
#      20022
#      42065
#      61922
#      75080
#      99710
#      117695
#      139422
#      158897
#      173697
#      192285
#      207420
#      225845
#      243297
# 
# Disc length: 3546 seconds
#
# Revision: 3
# Processed by: cddbd v1.4PL0 Copyright (c) Steve Scherf et al.
#
# Submitted via: FreeRIP 1.21
#
DISCID=b20dd80e
DTITLE=Various Artist - E-Town Live
DYEAR=1900
DGENRE=Rock
TTITLE0=James Taylor-Copperline
TTITLE1=Michelle Shocked-Prodigal Daughter
TTITLE2=Lyle Lovett-L.A.County
TTITLE3=Richard Thompson-1952 Vincent Black Lightning
TTITLE4=Ani DiFranco-Cradle and All
TTITLE5=Ted Hawkins-Strange Conversation
TTITLE6=Tarika-Ragoaika
TTITLE7=Bobby McFerrin and Voicestra-Circle Song 10
TTITLE8=The Fairfield Four-Noah
TTITLE9=Steve Earl-Ellis Unit One
TTITLE10=Cowboy Junkies-Bea's Song
TTITLE11=Big Head Todd and the Monsters-It's Alright
TTITLE12=Joan Osborne-St. Teresa
TTITLE13=Zachary Richard-Sunset on Louisianne
EXTD=
EXTT0=
EXTT1=
EXTT2=
EXTT3=
EXTT4=
EXTT5=
EXTT6=
EXTT7=
EXTT8=
EXTT9=
EXTT10=
EXTT11=
EXTT12=
EXTT13=
PLAYORDER=
